<svg xmlns="http://www.w3.org/2000/svg" width="15.999" height="16" viewBox="0 0 15.999 16">
    <g style="opacity:.5">
        <path data-name="Subtraction 2" d="M8 16a8 8 0 1 1 8-8 8.009 8.009 0 0 1-8 8zm2.761-5.458c.084.067.158.122.227.17a5.876 5.876 0 0 1-.926.441 6.478 6.478 0 0 0 .587.944 8.948 8.948 0 0 0 2.745-1.372 8.937 8.937 0 0 0-1.612-6.135 8.96 8.96 0 0 0-2.237-.69 6.338 6.338 0 0 0-.286.581 8.374 8.374 0 0 0-2.482 0 6.011 6.011 0 0 0-.286-.58 9.021 9.021 0 0 0-2.239.688 9.019 9.019 0 0 0-1.607 6.133A8.989 8.989 0 0 0 5.388 12.1a6.662 6.662 0 0 0 .588-.944 5.907 5.907 0 0 1-.925-.441c.079-.057.157-.117.227-.17a6.457 6.457 0 0 0 5.483 0zm-.94-1.053a1.032 1.032 0 0 1-.976-1.079 1.023 1.023 0 0 1 .976-1.084.928.928 0 0 1 .664.284 1.117 1.117 0 0 1 .31.8 1.031 1.031 0 0 1-.974 1.079zm-3.6 0a1.033 1.033 0 0 1-.979-1.079 1.035 1.035 0 0 1 .975-1.084.932.932 0 0 1 .666.285 1.117 1.117 0 0 1 .311.8 1.033 1.033 0 0 1-.975 1.078z" style="fill:#56538e"/>
    </g>
</svg>
