<svg xmlns="http://www.w3.org/2000/svg" width="16.006" height="16" viewBox="0 0 16.006 16">
    <g style="opacity:.5">
        <path data-name="Path 1" d="M222.7 220.948a.678.678 0 0 1 .681-.678h1.13a.679.679 0 0 1 .679.679v4.272c.127-.038.29-.078.469-.12a.566.566 0 0 0 .436-.551v-5.3a.679.679 0 0 1 .679-.679h1.132a.679.679 0 0 1 .679.679v4.919s.283-.115.559-.231a.567.567 0 0 0 .346-.522v-5.864a.679.679 0 0 1 .679-.679h1.132a.679.679 0 0 1 .679.679v4.829a13.278 13.278 0 0 0 2.765-2.6 1.14 1.14 0 0 0 .174-1.064 8 8 0 1 0-14.486 6.608 1.011 1.011 0 0 0 .965.5c.214-.019.481-.045.8-.083a.566.566 0 0 0 .5-.562v-4.24" style="fill:#56538e" transform="translate(-219.378 -213.33)"/>
        <path data-name="Path 2" d="M244.416 276.868a8 8 0 0 0 12.7-6.469 8.31 8.31 0 0 0-.021-.548c-2.923 4.359-8.319 6.4-12.683 7.017" transform="translate(-241.114 -262.399)" style="fill:#56538e"/>
    </g>
</svg>
