<svg xmlns="http://www.w3.org/2000/svg" width="192" height="8.031" viewBox="0 0 192 8.031">
    <path data-name="Path 61675" d="M437.989 2467.7v1.6H431.6v-7.983h6.386v1.6h1.6v4.79zm0-4.79H433.2v4.79h4.79z" transform="translate(-431.603 -2461.267)" style="fill:#232149"/>
    <path data-name="Path 61676" d="M553.64 2469.294v-1.6h-1.6v-4.79h1.6v-1.6h6.386v1.6h-6.386v1.6h6.386v1.6h-6.386v1.6h6.386v1.6z" transform="translate(-540.548 -2461.267)" style="fill:#232149"/>
    <path data-name="Path 61677" d="M678.87 2469.295v-1.6h-4.79v1.6h-1.6v-6.386h1.6v-1.6h4.79v1.6h1.6v6.386zm0-6.386h-4.79v3.193h4.79z" transform="translate(-649.494 -2461.267)" style="fill:#232149"/>
    <path data-name="Path 61678" d="M799.311 2467.7v1.6h-6.386v-7.983h6.386v1.6h1.6v4.79zm0-4.79h-4.79v4.79h4.79z" transform="translate(-758.441 -2461.267)" style="fill:#232149"/>
    <path data-name="Path 61679" d="M990.008 2467.7v1.6h-6.386v-7.983h6.386v1.6h1.6v1.6h-1.6v1.6h1.6v1.6zm0-4.79h-4.79v1.6h4.79zm0 3.193h-4.79v1.6h4.79z" transform="translate(-930.938 -2461.267)" style="fill:#232149"/>
    <path data-name="Path 61680" d="M1104.062 2469.294v-1.6h3.193v-4.79h-3.193v-1.6h3.193v1.6h1.6v-1.6h3.193v1.6h-3.193v4.79h3.193v1.6z" transform="translate(-1039.883 -2461.267)" style="fill:#232149"/>
    <path data-name="Path 61681" d="M1230.889 2469.295v-3.195h-4.79v3.193h-1.6v-7.983h6.386v1.6h1.6v1.6h-1.6v1.6h1.6v3.193zm0-6.386h-4.79v1.6h4.79z" transform="translate(-1148.829 -2461.267)" style="fill:#232149"/>
    <path data-name="Path 61682" d="M1351.329 2467.7v1.6h-6.386v-7.983h6.386v1.6h1.6v4.79zm0-4.79h-4.79v4.79h4.79z" transform="translate(-1257.775 -2461.267)" style="fill:#232149"/>
    <path data-name="Path 61683" d="M1471.77 2467.7v-1.6h-4.79v-1.6h-1.6v-1.6h1.6v-1.6h6.386v1.6h-6.386v1.6h6.386v3.193zm0 1.6h-6.386v-1.6h6.386z" transform="translate(-1366.721 -2461.267)" style="fill:#232149"/>
    <path data-name="Path 61684" d="M1662.467 2467.7v-1.6h-4.79v-1.6h-1.6v-1.6h1.6v-1.6h6.386v1.6h-6.386v1.6h6.386v3.193zm0 1.6h-6.386v-1.6h6.386z" transform="translate(-1539.218 -2461.267)" style="fill:#232149"/>
    <path data-name="Path 61685" d="M1782.907 2467.7v1.6h-4.79v-1.6h-1.6v-4.79h1.6v-1.6h4.79v1.6h1.6v4.79z" transform="translate(-1648.163 -2461.267)" style="fill:#232149"/>
    <path data-name="Path 61686" d="M1898.558 2469.294v-1.6h-1.6v-4.79h1.6v-1.6h6.386v3.193h-1.6v-1.6h-4.79v4.79h6.386v1.6z" transform="translate(-1757.108 -2461.267)" style="fill:#232149"/>
    <path data-name="Path 61687" d="M2017.4 2469.294v-1.6h3.193v-4.79h-3.193v-1.6h3.193v1.6h1.6v-1.6h3.193v1.6h-3.193v4.79h3.193v1.6z" transform="translate(-1866.055 -2461.267)" style="fill:#232149"/>
    <path data-name="Path 61688" d="M2139.438 2469.294v-1.6h-1.6v-4.79h1.6v-1.6h6.386v1.6h-6.386v1.6h6.386v1.6h-6.386v1.6h6.386v1.6z" transform="translate(-1975 -2461.267)" style="fill:#232149"/>
    <path data-name="Path 61689" d="M2361.3 2469.294v-1.6h1.6v-1.6h-1.6v-1.6h-1.6v-3.193h1.6v3.193h1.6v1.6h1.6v-1.6h1.6v-3.193h1.6v3.193h-1.6v1.6h-1.6v1.6h-1.6v1.6z" transform="translate(-2175.691 -2461.267)" style="fill:#232149"/>
    <path data-name="Path 61690" d="M2257.192 2465.055v-4.212h-1.618v4.212h-3.236v1.618h3.236v2.2h1.618v-2.2h3.236v-1.618z" transform="translate(-2078.569 -2460.843)" style="fill:#232149"/>
</svg>
