<svg xmlns="http://www.w3.org/2000/svg" width="18.55" height="20" viewBox="0 0 18.55 20">
    <path data-name="Path 61691" d="M-215.612 16.218h1.53v-.74h2.19v-.718h5.172v.718h1.53v.738h1.441v.738h.74v-.742h-.736v-.738h-1.433v-.738h-1.533v-.718h-5.18v.718h-2.19v.74h-1.532v.736h-.685v.742h.688z" transform="translate(219.349 -14.019)" style="fill:#fff"/>
    <path data-name="Path 61692" d="M-226.558 37.56h.684v-.742h-.688v.742h-.718v1.456h.722z" transform="translate(228.916 -33.883)" style="fill:#fff"/>
    <path data-name="Rectangle 11774" transform="translate(.929 5.114)" style="fill:#fff" d="M0 0h.705v3.739H0z"/>
    <path data-name="Rectangle 11775" transform="translate(3.741 7.338)" style="fill:#fff" d="M0 0h.688v2.943H0z"/>
    <path data-name="Path 61693" d="M-201.756 60.492v-.753h-3.125v.672h-.649v4.519h.649v.742h3.125v-.8h-.776v-.753h.776v-2.932h-.776v-.7z" transform="translate(209.966 -53.853)" style="fill:#fff"/>
    <path data-name="Rectangle 11776" transform="translate(8.214 6.628)" style="fill:#fff" d="M0 0h.738v.703H0z"/>
    <path data-name="Path 61694" d="M-167.326 65.672v-.753h-.776v-.8h.776v-2.932h-.776v-.7h.776v-.753h-3.125v.672h-.649v.78h-.7v2.221h-.711v1.472h-.734v-.7h-.807v-.78h1.545v-.7h-1.549v.689h-.722v-2.201h-.688v2.932h-.73v.756h.738v-.756h.668v.772h1.545v.7h.738v-.7h.707v-.757h.7v.8h.649v.742z" transform="translate(184.404 -53.853)" style="fill:#fff"/>
    <path data-name="Path 61695" d="M-113.085 36.864v.742h.726v1.45h.767v1.495h-.749v.7h.749v2.974h-.749v.7h.749v1.5h.688v-7.389h-.688V37.6h-.763v-.736z" transform="translate(129.423 -33.923)" style="fill:#fff"/>
    <path data-name="Rectangle 11777" transform="translate(.008 17.682)" style="fill:#fff" d="M0 0h.745v2.225H0z"/>
    <path data-name="Rectangle 11778" transform="translate(0 14.739)" style="fill:#fff" d="M0 0h.767v2.178H0z"/>
    <path data-name="Path 61696" d="M-219.959 90.867v-1.495h-.761v-.723h-.715v.724h-.769v-.727h-2.208v-.726h-5.137v-.742h-5.251v-.787h-2.135v-.731h-.649v-2.881h-.7v2.912h.686v.7h.654v.78h.708v.757h-1.5v.734h1.5v-.726h4.413v.724h-2.945v.74h-2.2v.734h3.743V89.4h1.4v.736h-2.18v.734h4.4v.73h.749v2.236h.767V90.874h1.458v2.963h.767v-.008h2.963v-.711h1.471v-.768h.709v1.576h.767v-1.58h-.761v-1.479zm-11.1-2.928h1.479v.711h1.484v2.213h-1.504v-.73h-1.456zm5.191 4.4h2.918v.749h-2.918zm3.685.008v-.707h.748v.711zm.748-1.491h-1.515v.749h-2.918v-.738h2.918v-.734h-4.379v-.761h4.38v.761h1.516v-.759h.709v1.484h-.71z" transform="translate(238.508 -73.926)" style="fill:#fff"/>
    <path data-name="Path 61697" d="M-127.371 113.531v-1.466h.763v-.726h-.767v.719h-2.945v.712h2.188v.763z" transform="translate(144.439 -98.809)" style="fill:#fff"/>
    <path data-name="Path 61698" d="M-231.832 145.426h-2.236v.764h2.234v.757h-1.448v.734h2.955v.73h4.4v-.734h-1.456v-.715h1.456v-.778h-5.907zm3.684 2.251h-1.392v-.715h1.392z" transform="translate(234.83 -128.508)" style="fill:#fff"/>
</svg>
