<svg width="96" height="96" viewBox="0 0 56 56" fill="none" xmlns="http://www.w3.org/2000/svg"><g clip-path="url(#moonbird-glyph_svg__a)"><path d="M56 0H0v55.97h56V0Z" fill="#3F42FC"></path><path d="M28 6.125h-1.346V7.47H28V6.125ZM32.038 10.161h-1.346v1.346h1.346V10.16Z" fill="#fff"></path><path d="M25.308 12.852h1.346v1.345h2.692v-1.345h1.346v-1.345H28V10.16h-1.346v-2.69h-1.346v1.345h-1.346v2.69h1.346v1.346ZM25.308 18.234h-4.039v1.345h4.039v-1.345ZM41.462 20.925h-1.347v1.345h1.347v-1.345ZM38.77 19.58h-1.347v1.345h2.692v-1.346H38.77ZM37.423 18.234h-2.692v1.345h2.692v-1.345ZM34.73 16.888h-9.422v1.346h9.423v-1.346ZM38.77 16.888v-1.345h-1.347v2.691h1.346v-1.346ZM40.115 14.197H38.77v1.346h1.346v-1.345ZM40.115 18.234h1.347v-2.691h-1.347v2.691ZM41.462 20.924h1.346v-2.69h-1.346v2.69ZM13.192 20.925h-1.346v12.108h1.346V20.925ZM13.192 19.58v1.345h1.347v-2.691h-1.347v1.345ZM14.539 16.888v1.346h1.346v-2.691h-1.346v1.345ZM17.23 14.197h-1.345v1.346h1.346v-1.345ZM18.577 15.543H17.23v2.691h1.346v-2.691ZM19.923 18.234h-1.346v2.69h1.346v1.346h1.346v-2.691h-1.346v-1.345ZM11.846 33.033H10.5v12.11h1.346v-12.11ZM13.192 45.142h-1.346v1.345h1.346v-1.345ZM44.154 46.487H41.46v1.346h2.693v-1.346ZM41.462 47.833H18.576v1.345H41.46v-1.345ZM18.577 46.487h-5.385v1.346h5.385v-1.346ZM30.692 37.07v1.345h1.346v1.345h1.347v-2.69h-2.693ZM44.154 31.688h-1.346v-1.345h-5.385v1.345h-1.346v5.382h1.346v1.345h5.385V37.07h1.346v-5.382Zm-2.693 4.036H38.77v-2.69h1.346v1.345h1.346v1.345ZM28 31.688h-1.346v-1.345h-5.385v1.345h-1.346v5.382h1.346v1.345h5.385V37.07H28v-5.382Zm-2.692 4.036h-2.693v-2.69h1.347v1.345h1.346v1.345Z" fill="#fff"></path><path d="M42.808 38.415v1.345h-5.385v-1.345h-1.346V37.07H34.73v2.69h-1.346v1.346h-1.347V39.76h-2.692v-2.69H28v1.345h-1.346v1.345h-5.385v-1.345h-1.346V37.07h-1.346v-5.382h1.346v-1.345h1.346v-1.346h5.385v1.346H28v1.345h1.346v5.382h1.346v-1.346h2.693v1.346h1.346v-5.382h1.346v-1.345h1.346v-1.346h5.385v1.346h1.346v1.345H45.5v-4.036h-1.346v-6.727h-1.346v1.345H41.46v1.345h1.347v2.691h-6.731v1.346H34.73v1.345h-1.346v1.346h-2.693v-1.346h-1.346v-1.345H28v-1.346h-6.73v1.346h-1.347v1.345h-1.346v1.346H17.23v1.345h-1.347v5.382h1.347v2.69h1.346v1.346h1.346v1.345h2.692v1.346h2.693v1.345h12.115v-1.345h2.692V42.45h2.693v-1.345h1.346v5.381H45.5V37.07h-1.346v1.345h-1.346Z" fill="#fff"></path></g><defs><clipPath id="moonbird-glyph_svg__a"><rect width="56" height="56" rx="28" fill="#fff"></rect></clipPath></defs></svg>
