<svg xmlns="http://www.w3.org/2000/svg" width="16" height="16" viewBox="0 0 16 16">
    <g style="opacity:.5">
        <path data-name="Subtraction 1" d="M8 16A8 8 0 0 1 2.343 2.343a8 8 0 1 1 11.314 11.314A7.947 7.947 0 0 1 8 16zm-4.411-4.652a5.375 5.375 0 0 0 2.948.872 5.435 5.435 0 0 0 5.488-5.488v-.248a3.94 3.94 0 0 0 .964-1 3.922 3.922 0 0 1-1.108.3 1.931 1.931 0 0 0 .848-1.068 3.92 3.92 0 0 1-1.224.468 1.908 1.908 0 0 0-1.408-.608 1.93 1.93 0 0 0-1.933 1.932 1.769 1.769 0 0 0 .052.44A5.491 5.491 0 0 1 4.24 4.932a1.94 1.94 0 0 0-.26.968 1.919 1.919 0 0 0 .86 1.6 1.886 1.886 0 0 1-.872-.24v.024A1.938 1.938 0 0 0 5.516 9.18a1.926 1.926 0 0 1-.508.068 1.835 1.835 0 0 1-.364-.036 1.925 1.925 0 0 0 1.8 1.34 3.853 3.853 0 0 1-2.4.824 3.443 3.443 0 0 1-.455-.028z" style="fill:#56538e"/>
    </g>
</svg>
