<svg xmlns="http://www.w3.org/2000/svg" width="84.5" height="96.5" viewBox="0 0 84.5 96.5">
    <path data-name="Subtraction 52" d="M-1629.653-1463.948h-29.621a9.53 9.53 0 0 1-6.925-2.679 9.556 9.556 0 0 1-2.675-6.934v-46.561a9.549 9.549 0 0 1 2.675-6.931 9.539 9.539 0 0 1 6.926-2.677h65.375c2.145 0 2.906.776 2.907 2.965l.005 9.83V-1508.312a1.175 1.175 0 0 1-.872.287c-.075 0-.151 0-.236-.005h-5.84c-1.061 0-1.9 0-2.707.005a6.686 6.686 0 0 0-6.864 6.889 1120.61 1120.61 0 0 0 0 8.6 6.687 6.687 0 0 0 6.864 6.889h5.574c1.054 0 1.9 0 2.727.005h.484a1.176 1.176 0 0 1 .875.289V-1476.733l-.005 9.828a3.161 3.161 0 0 1-.654 2.3 3.022 3.022 0 0 1-2.255.668h-35.754zm24.573-4.6c3.406 0 6.011.009 8.446.028h.034a1.147 1.147 0 0 0 .889-.251 1.086 1.086 0 0 0 .153-.868 9.579 9.579 0 0 1-.022-1.255c0-.164.01-.367.01-.56 0-1.679 0-1.679-1.627-1.679h-59.549c-2.216 0-2.964-.758-2.964-3.005v-41.4c0-2.29.739-3.025 3.038-3.025H-1596.446c.107 0 .195 0 .277.01h.106a.491.491 0 0 0 .369-.122.654.654 0 0 0 .131-.491l-.014-.508v-.005a19.107 19.107 0 0 1 .028-2.352 1.118 1.118 0 0 0-.164-.885c-.164-.18-.448-.253-.981-.253h-.013c-17.048.021-34.381.021-51.143.021h-11.364c-3.226 0-5.076 1.862-5.076 5.107v46.366c0 3.26 1.877 5.13 5.151 5.13h50.16zm-24.722-13.77a.674.674 0 0 1 .52.149.621.621 0 0 1 .118.474 2.247 2.247 0 0 0 .623 1.68 2.39 2.39 0 0 0 1.661.763h.093a2.383 2.383 0 0 0 2.185-2.622.945.945 0 0 1 .724-1.033 7.755 7.755 0 0 0 3.5-2.53 8.128 8.128 0 0 0 1.221-8.519 8.044 8.044 0 0 0-7.57-5.17 4.414 4.414 0 0 1-2.867-1.151 3.636 3.636 0 0 1-1.1-2.719 3.719 3.719 0 0 1 1.147-2.717 4.2 4.2 0 0 1 2.889-1.075H-1621.028a2.365 2.365 0 0 0 2.544-2.271 2.368 2.368 0 0 0-2.5-2.313c-.422-.006-.975-.013-1.513-.013-.5 0-.944.006-1.35.017h-.07c-.427 0-.651-.1-.685-.677a2.328 2.328 0 0 0-2.263-2.388h-.057a2.343 2.343 0 0 0-2.229 2.575.985.985 0 0 1-.772 1.092 8.429 8.429 0 0 0-5.348 7.361 8.406 8.406 0 0 0 8.474 8.857 3.791 3.791 0 0 1 3.733 3.516 3.745 3.745 0 0 1-2.946 4 6.234 6.234 0 0 1-1.472.149c-.272 0-.544-.01-.8-.02h-.022c-.246-.009-.5-.019-.736-.019-.21 0-.39.007-.55.022h-3.083a2.766 2.766 0 0 0-1.983.765 2.132 2.132 0 0 0-.614 1.551 2.4 2.4 0 0 0 2.641 2.272h1.522c.48 0 .875 0 1.245-.012z" transform="translate(1669.377 1559.948)" style="fill:#5568fe;stroke:transparent;stroke-miterlimit:10"/>
    <path data-name="Path 62007" d="M-613.624-139.768h-9.825a6.936 6.936 0 0 1-6.983-7.03v-8.982a6.953 6.953 0 0 1 6.887-6.934q4.96-.007 9.92 0c1.208 0 2.417-.012 3.625 0a2.3 2.3 0 0 1 2.468 2.439q.021 9.031 0 18.062a2.306 2.306 0 0 1-2.468 2.44c-1.207.017-2.416.005-3.624.005z" transform="translate(692.021 214.35)" style="fill:#3e57f0"/>
    <path data-name="Path 62008" d="M-749.285-352.1a2.645 2.645 0 0 1-1.915-.935 24.152 24.152 0 0 0-12.556-6.594 24.8 24.8 0 0 0-22.005 6.131c-.262.232-.5.492-.762.722a2.287 2.287 0 0 1-3.322-.075 2.24 2.24 0 0 1 .178-3.248 29.451 29.451 0 0 1 9.443-6.327 29.8 29.8 0 0 1 32.318 6.191 2.293 2.293 0 0 1 .719 2.747 2.228 2.228 0 0 1-2.098 1.388z" transform="translate(811.22 364.733)" style="fill:#3e57f0"/>
    <path data-name="Path 62009" d="M-749.726-328.872a20.348 20.348 0 0 1 14.41 5.956 2.232 2.232 0 0 1 .184 3.244 2.265 2.265 0 0 1-3.247.143.757.757 0 0 1-.073-.061 16.075 16.075 0 0 0-22.657-.025 2.248 2.248 0 0 1-3.84-1.055 2.151 2.151 0 0 1 .64-2.178 20.278 20.278 0 0 1 11.729-5.826 16.739 16.739 0 0 1 2.854-.198z" transform="translate(792.277 338.04)" style="fill:#3e57f0"/>
    <path data-name="Path 62010" d="M-730.269-292.9a11.042 11.042 0 0 1 7.251 3.115 2.284 2.284 0 0 1 .328 3.382 2.288 2.288 0 0 1-3.394.026c-3.116-2.614-6.419-2.61-9.567.013a2.28 2.28 0 0 1-3.391-.065c-.9-1.013-.76-2.3.365-3.379a11.886 11.886 0 0 1 8.408-3.092z" transform="translate(773.359 311.259)" style="fill:#3e57f0"/>
    <path data-name="Path 62013" d="M-598.751-137.893c0 2.038-.015 4.076.01 6.113.007.561-.14.786-.745.782-3.528-.024-7.056 0-10.584-.018a2.285 2.285 0 0 1-2.417-2.389q-.035-4.489 0-8.979a2.277 2.277 0 0 1 2.323-2.383c3.56-.027 7.12 0 10.68-.022.606 0 .75.224.743.783-.026 2.038-.01 4.075-.01 6.113z" transform="translate(678.666 201)" style="fill:#fefefe"/>
    <path data-name="Path 62014" d="M-589.918-124.523a2.319 2.319 0 0 1-2.262 2.335 2.323 2.323 0 0 1-2.307-2.291 2.32 2.32 0 0 1 2.216-2.286 2.319 2.319 0 0 1 2.353 2.242z" transform="translate(665.244 187.583)" style="fill:#3e57f0"/>
</svg>
